<svg width="16" height="16" viewBox="0 0 16 16" fill="none" xmlns="http://www.w3.org/2000/svg">
<g clip-path="url(#clip0_24_36)">
<path d="M8.06866 16C12.449 16 16 12.5526 16 8.3C16 4.04741 12.449 0.599998 8.06866 0.599998C3.68831 0.599998 0.137329 4.04741 0.137329 8.3C0.137329 12.5526 3.68831 16 8.06866 16Z" fill="#DDD8C5"/>
<path d="M2.92532 13.4267C2.4309 13.4267 1.96394 13.3378 1.52446 13.16C1.08497 12.9911 0.727893 12.7289 0.453215 12.3733C0.187692 12.0178 0.0549316 11.5733 0.0549316 11.04C0.0549316 10.5778 0.146491 10.2178 0.32961 9.96C0.521884 9.7022 0.755361 9.52 1.03004 9.41333C1.30472 9.30666 1.56566 9.25333 1.81287 9.25333C1.56566 9.51113 1.37797 9.79553 1.24978 10.1067C1.1216 10.4178 1.05751 10.7289 1.05751 11.04C1.05751 11.3689 1.13076 11.6755 1.27725 11.96C1.4329 12.2445 1.66638 12.4711 1.97768 12.64C2.28898 12.8178 2.68269 12.9067 3.15879 12.9067C3.57081 12.9067 3.97367 12.8311 4.36738 12.68C4.76108 12.5378 5.08154 12.3245 5.32875 12.04C5.58512 11.7467 5.7133 11.3867 5.7133 10.96C5.7133 10.5778 5.61258 10.2489 5.41115 9.97333C5.20973 9.6978 4.94878 9.45333 4.62832 9.24C4.31702 9.02666 3.98283 8.8222 3.62575 8.62666C3.26867 8.43113 2.9299 8.22666 2.60944 8.01333C2.29814 7.79113 2.04177 7.5378 1.84034 7.25333C1.63891 6.96886 1.53819 6.62666 1.53819 6.22666C1.53819 5.85333 1.62975 5.46222 1.81287 5.05333C1.99599 4.64444 2.25694 4.25778 2.5957 3.89333C2.94363 3.52888 3.35565 3.23555 3.83176 3.01333C4.31702 2.78222 4.85722 2.66666 5.45236 2.66666C5.99256 2.66666 6.36795 2.79555 6.57854 3.05333C6.78913 3.30222 6.89442 3.61778 6.89442 4C6.89442 4.32 6.8349 4.66666 6.71588 5.04C6.606 5.40444 6.46867 5.75555 6.30386 6.09333C6.13905 6.42222 5.9834 6.7022 5.83691 6.93333C5.6721 6.8978 5.55307 6.83113 5.47982 6.73333C5.41574 6.62666 5.38369 6.50222 5.38369 6.36C5.38369 6.17333 5.42489 5.96 5.50729 5.72C5.5897 5.48 5.68125 5.23111 5.78197 4.97333C5.89184 4.71555 5.98798 4.46666 6.07038 4.22666C6.15279 3.97778 6.19399 3.75555 6.19399 3.56C6.19399 3.38222 6.13905 3.24444 6.02918 3.14666C5.91931 3.04 5.71788 2.98666 5.42489 2.98666C4.99456 2.98666 4.59627 3.08444 4.23004 3.28C3.8638 3.47555 3.54334 3.72888 3.26867 4.04C2.99399 4.34222 2.77883 4.66222 2.62317 5C2.47668 5.33778 2.40343 5.64444 2.40343 5.92C2.40343 6.24888 2.49957 6.53333 2.69184 6.77333C2.89327 7.00446 3.14964 7.2178 3.46094 7.41333C3.77224 7.6 4.10185 7.79113 4.44978 7.98666C4.80686 8.17333 5.14106 8.3822 5.45236 8.61333C5.76366 8.84446 6.01545 9.12 6.20772 9.44C6.40915 9.75113 6.50987 10.1333 6.50987 10.5867C6.50987 11.0489 6.40458 11.4578 6.19399 11.8133C5.9834 12.16 5.69957 12.4533 5.34249 12.6933C4.99456 12.9333 4.61001 13.1155 4.18884 13.24C3.76767 13.3645 3.34649 13.4267 2.92532 13.4267ZM10.277 13.4267C9.80092 13.4267 9.36604 13.2933 8.97229 13.0267C8.58774 12.7689 8.28106 12.3955 8.05212 11.9067C7.82324 11.4089 7.70877 10.8133 7.70877 10.12C7.70877 9.43553 7.81864 8.7422 8.03838 8.04C8.25812 7.3378 8.55574 6.66666 8.93109 6.02666C9.31564 5.38666 9.75059 4.81778 10.2358 4.32C10.7211 3.81333 11.2292 3.41333 11.7603 3.12C12.3005 2.82666 12.8315 2.68 13.3534 2.68C13.7014 2.68 13.9806 2.75111 14.1912 2.89333C14.4018 3.03555 14.5529 3.22222 14.6444 3.45333C14.736 3.67555 14.7817 3.92 14.7817 4.18666C14.7817 4.49778 14.7268 4.80444 14.6169 5.10666C14.5071 5.4 14.3606 5.64444 14.1774 5.84C13.9944 6.03555 13.7929 6.13333 13.5731 6.13333C13.4999 6.13333 13.4221 6.11111 13.3397 6.06666C13.2665 6.02222 13.2023 5.94222 13.1474 5.82666C13.2756 5.73778 13.4221 5.57778 13.5869 5.34666C13.7609 5.11555 13.9074 4.85778 14.0264 4.57333C14.1546 4.28888 14.2186 4.02666 14.2186 3.78666C14.2186 3.58222 14.1546 3.41333 14.0264 3.28C13.9074 3.14666 13.6968 3.08 13.3946 3.08C13.0009 3.08 12.5889 3.23555 12.1586 3.54666C11.7374 3.85778 11.3254 4.27555 10.9225 4.8C10.5288 5.31555 10.1717 5.89333 9.85126 6.53333C9.53085 7.17333 9.27443 7.82666 9.08216 8.49333C8.89909 9.16 8.80748 9.79113 8.80748 10.3867C8.80748 11.1955 8.98149 11.8267 9.32937 12.28C9.67732 12.7422 10.1168 12.9733 10.6478 12.9733C11.0049 12.9733 11.3437 12.8445 11.6641 12.5867C11.9846 12.3378 12.2684 12.0133 12.5156 11.6133C12.7628 11.2045 12.9597 10.7645 13.1062 10.2933C13.2619 9.8222 13.358 9.36886 13.3946 8.93333C13.0559 8.8622 12.7812 8.8178 12.5706 8.8C12.36 8.77333 12.1632 8.76 11.98 8.76C11.861 8.76 11.7328 8.76446 11.5955 8.77333C11.4673 8.77333 11.3163 8.77333 11.1422 8.77333C11.2064 8.51553 11.3163 8.3378 11.4719 8.24C11.6367 8.13333 11.8381 8.08 12.0761 8.08C12.3326 8.08 12.598 8.12446 12.8727 8.21333C13.1566 8.29333 13.4313 8.3822 13.6968 8.48C13.9623 8.5778 14.1958 8.65333 14.3972 8.70666L14.301 9.13333C14.1271 9.5778 13.9852 9.96886 13.8753 10.3067C13.7654 10.6355 13.6785 10.9289 13.6143 11.1867C13.5594 11.4355 13.5182 11.6578 13.4907 11.8533C13.4725 12.0489 13.4633 12.2267 13.4633 12.3867C13.4633 12.5645 13.4679 12.7378 13.477 12.9067C13.4953 13.0755 13.5091 13.2489 13.5182 13.4267C13.3717 13.3645 13.239 13.2889 13.1199 13.2C13.0101 13.12 12.9231 13.0178 12.859 12.8933C12.804 12.7689 12.7766 12.6267 12.7766 12.4667C12.7766 12.3689 12.7812 12.2711 12.7903 12.1733C12.8086 12.0755 12.8361 11.9689 12.8727 11.8533C12.5431 12.2978 12.1632 12.6711 11.7328 12.9733C11.3025 13.2755 10.8172 13.4267 10.277 13.4267Z" fill="#1A3966"/>
</g>
<defs>
<clipPath id="clip0_24_36">
<rect width="16" height="16" fill="white"/>
</clipPath>
</defs>
</svg>
